<svg width="717" height="827" viewBox="0 0 717 827" fill="none" xmlns="http://www.w3.org/2000/svg">
<line x1="7.5" y1="-7.5" x2="340.432" y2="-7.5" transform="matrix(0.707245 -0.706969 0.707245 0.706969 431 533.115)" stroke="#0044FF" stroke-opacity="0.6" stroke-width="15" stroke-linecap="round"/>
<line x1="7.5" y1="-7.5" x2="190.461" y2="-7.5" transform="matrix(0.707245 -0.706969 0.707245 0.706969 315 429.155)" stroke="#0044FF" stroke-opacity="0.4" stroke-width="15" stroke-linecap="round"/>
<line x1="7.5" y1="-7.5" x2="104.478" y2="-7.5" transform="matrix(0.707245 -0.706969 0.707245 0.706969 190 554.106)" stroke="#0044FF" stroke-opacity="0.6" stroke-width="15" stroke-linecap="round"/>
<line x1="7.5" y1="-7.5" x2="223.455" y2="-7.5" transform="matrix(0.707245 -0.706969 0.707245 0.706969 337 217.238)" stroke="#0044FF" stroke-opacity="0.6" stroke-width="15" stroke-linecap="round"/>
<line x1="7.5" y1="-7.5" x2="161.467" y2="-7.5" transform="matrix(0.707245 -0.706969 0.707245 0.706969 597 238.23)" stroke="#0044FF" stroke-opacity="0.1" stroke-width="15" stroke-linecap="round"/>
<line x1="7.5" y1="-7.5" x2="148.47" y2="-7.5" transform="matrix(0.707245 -0.706969 0.707245 0.706969 506 238.23)" stroke="#0044FF" stroke-opacity="0.6" stroke-width="15" stroke-linecap="round"/>
<line x1="8" y1="816.393" x2="562.262" y2="262.132" stroke="#0044FF" stroke-opacity="0.4" stroke-width="15" stroke-linecap="round"/>
<line x1="7.5" y1="-7.5" x2="445.412" y2="-7.5" transform="matrix(0.707245 -0.706969 0.707245 0.706969 337 328.195)" stroke="#0044FF" stroke-opacity="0.2" stroke-width="15" stroke-linecap="round"/>
<line x1="7.5" y1="-7.5" x2="360.428" y2="-7.5" transform="matrix(0.707245 -0.706969 0.707245 0.706969 45 508.124)" stroke="#0044FF" stroke-opacity="0.6" stroke-width="15" stroke-linecap="round"/>
<line x1="7.5" y1="-7.5" x2="253.449" y2="-7.5" transform="matrix(0.707245 -0.706969 0.707245 0.706969 225 253.224)" stroke="#0044FF" stroke-opacity="0.6" stroke-width="15" stroke-linecap="round"/>
</svg>
