<svg width="794" height="704" viewBox="0 0 794 724" fill="none" xmlns="http://www.w3.org/2000/svg">
    <line x1="14" y1="-14" x2="353.696" y2="-14" transform="matrix(0.707107 0.707107 0.707107 -0.707107 51 319)" stroke="#EF066C" stroke-opacity="0.30" stroke-width="28" stroke-linecap="round"/>
    <line x1="14" y1="-14" x2="257.529" y2="-14" transform="matrix(0.707107 0.707107 0.707107 -0.707107 343 498)" stroke="#BA19A7" stroke-opacity="0.22" stroke-width="28" stroke-linecap="round"/>
    <line x1="14" y1="-14" x2="97.7229" y2="-14" transform="matrix(0.707107 0.707107 0.707107 -0.707107 196 273)" stroke="#8E2AD7" stroke-opacity="0.26" stroke-width="28" stroke-linecap="round"/>
    <line x1="14" y1="-14" x2="183.99" y2="-14" transform="matrix(0.707107 0.707107 0.707107 -0.707107 321 398)" stroke="#7C31EC" stroke-opacity="0.20" stroke-width="28" stroke-linecap="round"/>
    <line x1="14" y1="-14" x2="783.616" y2="-14" transform="matrix(0.707107 0.707107 0.707107 -0.707107 14 0)" stroke="#4439F4" stroke-opacity="0.14" stroke-width="28" stroke-linecap="round"/>
    <line x1="14" y1="-14" x2="492.288" y2="-14" transform="matrix(0.707107 0.707107 0.707107 -0.707107 436 294)" stroke="#0044FF" stroke-opacity="0.18" stroke-width="28" stroke-linecap="round"/>
</svg>
